<svg width="11" height="15" viewBox="0 0 11 15" fill="none" xmlns="http://www.w3.org/2000/svg">
<path d="M10.9 9.20515V5.12458C10.9 4.39946 10.3249 3.78808 9.60499 3.78808H6.67316C5.95529 3.78808 5.37817 4.39946 5.37817 5.12458V9.20515C5.37817 9.86324 5.86077 10.4096 6.47811 10.5051V13.9844C6.47811 14.541 6.81593 15 7.22816 15H9.05402C9.46624 15 9.80206 14.541 9.80206 13.9844V10.5051C10.4174 10.4096 10.9 9.86527 10.9 9.20515Z" fill="#1F0A06"/>
<path d="M8.14109 3.35545C9.05842 3.35545 9.80206 2.60431 9.80206 1.67773C9.80206 0.751143 9.05842 0 8.14109 0C7.22376 0 6.48012 0.751143 6.48012 1.67773C6.48012 2.60431 7.22376 3.35545 8.14109 3.35545Z" fill="#1F0A06"/>
<path d="M4.3647 11.364V8.8036C4.3647 8.34862 4.00386 7.96502 3.55214 7.96502H1.71254C1.26211 7.96496 0.899986 8.34857 0.899986 8.80354V11.3639C0.899986 11.7769 1.20279 12.1197 1.59016 12.1796V14.3627C1.59016 14.7119 1.80214 14.9999 2.06081 14.9999H3.20644C3.46512 14.9999 3.67581 14.7119 3.67581 14.3627V12.1796C4.06189 12.1197 4.3647 11.7782 4.3647 11.364Z" fill="#1F0A06"/>
<path d="M2.63363 7.69352C3.20921 7.69352 3.67581 7.22222 3.67581 6.64083C3.67581 6.05944 3.20921 5.58813 2.63363 5.58813C2.05804 5.58813 1.59144 6.05944 1.59144 6.64083C1.59144 7.22222 2.05804 7.69352 2.63363 7.69352Z" fill="#1F0A06"/>
</svg>
