<svg width="20" height="10" viewBox="0 0 20 10" fill="none" xmlns="http://www.w3.org/2000/svg">
<g clip-path="url(#clip0)">
<path d="M11.7801 4.6172L7.83193 9.11322C7.65152 9.3618 7.70531 9.71071 7.95202 9.89249C8.05052 9.96509 8.16485 10.0001 8.27824 10.0001C8.44875 10.0001 8.61704 9.92082 8.72539 9.77149L11.7801 4.6172Z" fill="#1F0A06"/>
<path d="M17.5265 3.24339L13.6226 6.00645C14.3019 7.03252 14.6981 8.26508 14.6981 9.59104H19.8998C19.8998 9.58486 19.9 9.57867 19.9 9.57248C19.9 7.14583 19.0034 4.93058 17.5265 3.24339Z" fill="#1F0A06"/>
<path d="M6.62518 3.33969C7.15273 3.19839 7.70691 3.12266 8.27862 3.12266C8.9116 3.12266 9.523 3.21539 10.1007 3.38742L11.2695 0.0403158C10.983 0.0141077 10.6932 0 10.4 0C8.78067 0 7.25622 0.408678 5.92197 1.12862L6.62518 3.33969Z" fill="#1F0A06"/>
<path d="M10.6243 3.5682C11.6801 3.98603 12.5991 4.6777 13.2959 5.55628L17.145 2.83203C15.7414 1.40609 13.8959 0.422733 11.8324 0.108292L10.6243 3.5682Z" fill="#1F0A06"/>
<path d="M1.90641 5.28127C1.26287 6.57204 0.900002 8.02943 0.900002 9.57247C0.900002 9.57866 0.900223 9.58485 0.900223 9.59104H1.85921C1.85921 8.26581 2.255 7.03386 2.93358 6.00812L1.90641 5.28127Z" fill="#1F0A06"/>
<path d="M3.2602 5.55779C3.9929 4.63337 4.97175 3.91583 6.09697 3.50615L5.43123 1.41273C4.08598 2.24621 2.96252 3.40767 2.17083 4.78694L3.2602 5.55779Z" fill="#1F0A06"/>
</g>
<defs>
<clipPath id="clip0">
<rect x="0.900002" width="19" height="10" fill="white"/>
</clipPath>
</defs>
</svg>
