<svg width="74" height="36" viewBox="0 0 74 36" fill="none" xmlns="http://www.w3.org/2000/svg">
<path d="M25.146 9.57362C25.5855 9.57362 25.7564 10.0141 25.5366 10.2586C24.6822 11.3108 22.1432 12.3629 19.9459 12.4608C18.1394 15.3726 15.9665 19.8257 15.9665 21.5386C15.9665 22.8353 13.696 21.2938 13.696 18.896C13.696 17.4279 15.1608 14.7119 16.1862 12.5342C14.4649 12.5829 12.3823 12.704 10.3451 12.9453C8.58706 16.0705 6.87003 19.8556 6.87003 21.476C6.87003 22.9448 4.29833 21.1989 4.29833 18.4829C4.29833 17.3393 5.08311 15.5273 5.95087 13.7049C3.44784 13.9084 1.70895 13.9807 1.70895 14.8098C1.70895 15.8864 0 14.8588 0 13.7088C0 11.1244 3.30885 11.1794 7.37602 10.7763L8.11439 9.33723C11.1562 3.5727 13.2854 1.88216 13.0365 0.163866C12.9537 -0.418118 15.4423 0.551855 15.4423 3.04613C15.4423 4.84759 15.4976 4.76442 12.5388 9.33723L11.6453 10.7725C13.8426 10.748 15.4538 10.846 17.0652 10.8215C19.7507 5.73204 21.6305 4.23949 21.4107 2.72257C21.3375 2.20869 23.5347 3.06508 23.5347 5.26723C23.5347 6.8576 23.5835 6.78426 20.9713 10.8215C24.2184 10.6992 24.6822 9.57362 25.146 9.57362ZM71.9194 15.6944C71.9195 15.6944 75.2814 20.861 73.4581 24.5619C71.0127 29.5256 65.7373 29.4367 63.8416 29.2439C57.0194 28.5503 38.866 27.1248 36.5031 27.0146C34.1402 26.9045 22.2568 25.0344 18.9597 29.2063C18.9597 29.2063 16.0954 32.0646 19.3307 35.0766C19.3304 35.0766 19.044 35.1527 18.5448 35.0443C17.9417 34.9133 17.4071 34.5606 17.0188 34.08C14.7157 31.2312 16.6655 28.1684 16.6655 28.1684C19.9352 22.7986 31.6124 24.313 33.9753 24.4231C36.3382 24.5332 54.3699 25.9628 61.149 26.6806C61.149 26.6806 68.5949 27.8361 70.738 24.3114C72.8811 20.7866 69.1169 15.4422 69.1169 15.4422L67.7444 13.4129H67.7443C66.9578 14.2238 66.125 14.7108 65.1312 15.2534C65.1258 15.2564 65.1196 15.2618 65.1141 15.2648C64.5274 15.5793 63.8293 15.8563 62.9972 16.0556C62.9462 16.0678 62.9105 16.1141 62.9126 16.1665L62.9154 16.2407C63.0025 19.7217 60.7799 20.5608 59.5368 20.6089C58.9973 20.6298 57.2184 20.1804 57.1596 18.6525C57.0889 16.8178 60.1451 15.9534 60.6454 15.8244C60.6875 15.8135 60.7182 15.7776 60.7235 15.7343C60.7791 15.2829 61.0517 12.7913 60.5874 10.6775C60.56 10.5815 60.4311 10.562 60.3823 10.6491C59.9699 11.3828 59.4655 12.2307 58.9401 13.0141C58.9026 13.07 58.8644 13.1026 58.8255 13.1418C57.8041 14.6916 53.4675 20.7865 51.4976 20.8627C50.3959 20.9053 49.3076 20.0987 49.2257 17.8607C49.2264 17.8597 49.2282 17.7812 49.2282 17.7812H49.2256C49.2256 17.7812 49.2079 17.8595 49.208 17.8607C49.1531 17.9374 46.9408 21.0752 45.9451 21.1137C44.96 21.1518 43.3878 20.4295 43.3064 18.3139C43.2971 18.0729 43.2887 17.8178 43.2887 17.5526V17.5524C41.8579 19.3036 40.1897 20.882 39.0996 20.8877C38.1842 20.8924 37.576 19.6733 37.5669 17.9091C37.5567 15.9334 41.0052 11.2117 41.0063 11.2117H41.0062C40.2315 11.2117 33.5593 19.0807 33.565 20.1863C33.5739 21.927 31.9689 20.1913 31.9593 18.333C31.9584 18.167 31.9926 17.9773 32.0544 17.7687H32.0543C30.6064 19.437 29.0547 20.8814 28.0799 20.8814C27.1175 20.8814 26.1788 19.4267 26.1788 18.8386C26.1788 18.2747 26.5767 17.4057 26.5777 17.4037C26.5744 17.4076 23.6198 20.8851 22.7519 20.8851C21.907 20.8851 20.5455 19.8031 20.5455 18.1328C20.5455 15.4041 26.2492 9.14661 28.878 9.14661C30.2628 9.14661 31.1782 11.6402 30.6619 11.6402C27.9157 11.6402 21.6721 19.6384 23.3622 19.6384C23.9255 19.6384 28.7841 14.2514 28.5493 13.828C28.2912 13.4046 30.2159 13.7574 30.2159 15.4747C30.2159 17.1919 28.0095 19.6619 28.7606 19.6619C29.476 19.6619 32.8913 15.9099 34.969 12.8101C35.8423 11.4235 36.5644 10.0934 36.5596 9.16187C36.5553 8.33857 38.2733 9.22363 38.2855 11.576C38.2909 12.6366 37.6196 13.3815 37.5122 13.4939C37.783 13.2161 41.7739 9.13493 42.5447 9.13094C43.3663 9.12674 43.8654 10.3239 43.8713 11.4766C43.8772 12.6292 38.4211 19.6911 39.5007 19.6856C40.4933 19.6805 42.4777 17.6608 44.2887 15.3698C44.8382 14.3733 45.59 13.3564 46.4082 12.4454C46.4455 12.3918 46.4868 12.3469 46.5304 12.311C48.0904 10.6075 49.8638 9.30588 50.929 9.26471C52.5937 9.20028 53.1398 10.5674 53.1401 10.5681C53.1411 10.5663 57.9606 2.16557 57.909 0.825844C57.8801 0.073526 59.8764 0.066971 59.9931 3.09929C60.0972 5.80251 50.51 19.7333 52.1518 19.6698C52.8554 19.6426 56.4822 15.618 58.4257 12.4117C58.4574 12.361 58.4926 12.3172 58.5298 12.2799C59.2968 11.0372 60.4224 9.12613 60.7366 7.85021C60.8555 7.28062 61.1386 6.09268 61.5735 6.40539C62.1292 6.80761 63.718 7.80555 63.7696 9.14538C63.818 10.4016 62.8306 10.4528 62.8765 15.1293C62.8772 15.2038 62.9489 15.2586 63.0205 15.2387C63.9123 14.9908 64.6907 14.64 65.3768 14.1597C65.4465 14.111 65.513 14.0578 65.5775 14.0025L66.0624 13.5868C66.0624 13.5868 66.747 12.9407 67.0974 12.3108C67.4477 11.6808 69.2199 11.1748 70.0956 12.5379C70.1394 12.6059 70.174 12.6665 70.204 12.7231V12.723C71.1251 14.0326 71.9194 15.6944 71.9194 15.6944ZM46.338 19.9654C47.7217 19.9119 53.7837 11.1175 52.2826 11.1756C51.1333 11.22 46.0049 17.1154 46.109 19.8188C46.109 19.8187 46.1737 19.9718 46.338 19.9654ZM57.9389 18.7641C57.978 19.7773 59.9837 19.7656 60.6815 16.8416C60.7014 16.7583 60.6241 16.6844 60.5427 16.7107C59.9189 16.9117 57.896 17.6503 57.9389 18.7641Z" fill="white"/>
</svg>
