<svg width="13" height="15" viewBox="0 0 13 15" fill="none" xmlns="http://www.w3.org/2000/svg">
<path d="M10.4747 3.0975C11.2849 3.0975 11.9417 2.4041 11.9417 1.54875C11.9417 0.6934 11.2849 0 10.4747 0C9.66447 0 9.00767 0.6934 9.00767 1.54875C9.00767 2.4041 9.66447 3.0975 10.4747 3.0975Z" fill="#1F0A06"/>
<path d="M3.39715 3.0975C4.20736 3.0975 4.86416 2.4041 4.86416 1.54875C4.86416 0.6934 4.20736 0 3.39715 0C2.58695 0 1.93015 0.6934 1.93015 1.54875C1.93015 2.4041 2.58695 3.0975 3.39715 3.0975Z" fill="#1F0A06"/>
<path d="M9.37353 9.65062V5.88374C9.37353 5.21437 8.86558 4.64999 8.22976 4.64999H5.64029C5.00624 4.64999 4.49652 5.21437 4.49652 5.88374V9.65062C4.49652 10.2581 4.92277 10.7625 5.46802 10.8506V14.0625C5.46802 14.5762 5.76639 15 6.13048 15H7.74312C8.10721 15 8.40381 14.5762 8.40381 14.0625V10.8506C8.94728 10.7625 9.37353 10.26 9.37353 9.65062Z" fill="#1F0A06"/>
<path d="M6.9368 4.25063C7.74701 4.25063 8.40381 3.55723 8.40381 2.70187C8.40381 1.84652 7.74701 1.15312 6.9368 1.15312C6.1266 1.15312 5.4698 1.84652 5.4698 2.70187C5.4698 3.55723 6.1266 4.25063 6.9368 4.25063Z" fill="#1F0A06"/>
<path d="M4.04718 9.65063V5.88375C4.04718 4.9575 4.7647 4.2 5.64029 4.2H5.67404C5.51597 4.05 5.37921 3.87 5.27443 3.67312C5.10393 3.56625 4.90324 3.49875 4.69011 3.49875H2.10064C1.46659 3.49875 0.944435 4.05937 0.944435 4.72875V8.49563C0.944435 9.10313 1.39377 9.6075 1.93902 9.69563V12.9075C1.93902 13.4213 2.22496 13.8488 2.59083 13.8488H4.20347C4.56756 13.8488 4.85173 13.4213 4.85173 12.9075V11.1038C4.37753 10.8131 4.04718 10.2619 4.04718 9.65063Z" fill="#1F0A06"/>
<path d="M11.7694 3.50063H9.17994C8.96859 3.50063 8.7679 3.56625 8.5974 3.67313C8.49261 3.87 8.35764 4.05 8.19779 4.2H8.23154C9.10712 4.2 9.82465 4.9575 9.82465 5.88375V9.65062C9.82465 10.2619 9.49253 10.8131 9.0201 11.1056V12.9094C9.0201 13.4231 9.30604 13.8506 9.67013 13.8506H11.2828C11.6469 13.8506 11.9328 13.4231 11.9328 12.9094V9.6975C12.4781 9.60937 12.9274 9.10687 12.9274 8.4975V4.73062C12.9256 4.06125 12.4052 3.50063 11.7694 3.50063Z" fill="#1F0A06"/>
</svg>
